# Blender v2.79 (sub 0) OBJ File: ''
# www.blender.org
mtllib axes-cube.mtl
o Cube
v 3.000000 3.000000 -3.000000
v 3.000000 -3.000000 -3.000000
v -3.000000 -3.000000 -3.000000
v -2.999999 3.000001 -3.000000
v 3.000001 2.999998 3.000000
v 2.999998 -3.000002 3.000000
v -3.000001 -2.999999 3.000000
v -3.000000 3.000000 3.000000
vt 0.597726 0.534613
vt 0.970263 0.121862
vt 0.970263 0.534613
vt 0.315316 0.598238
vt 0.575423 0.997054
vt 0.315316 0.997054
vt 0.006934 0.603233
vt 0.202741 0.988330
vt 0.006934 0.988330
vt 0.638806 0.588335
vt 0.958319 1.003228
vt 0.638805 1.003228
vt 0.626533 0.025515
vt 0.286230 0.578406
vt 0.626533 0.578405
vt 0.207767 0.605590
vt 0.009021 0.209509
vt 0.207767 0.209509
vt 0.597726 0.121862
vt 0.575423 0.598238
vt 0.202741 0.603233
vt 0.958319 0.588336
vt 0.286230 0.025515
vt 0.009021 0.605590
vn 0.0000 0.0000 1.0000
vn -0.0000 0.0000 -1.0000
vn -1.0000 0.0000 0.0000
vn 0.0000 1.0000 0.0000
vn 1.0000 -0.0000 0.0000
vn -0.0000 -1.0000 -0.0000
usemtl Material
s off
f 4/1/1 2/2/1 1/3/1
f 6/4/2 8/5/2 5/6/2
f 2/7/3 5/8/3 1/9/3
f 3/10/4 6/11/4 2/12/4
f 3/13/5 8/14/5 7/15/5
f 8/16/6 1/17/6 5/18/6
f 4/1/1 3/19/1 2/2/1
f 6/4/2 7/20/2 8/5/2
f 2/7/3 6/21/3 5/8/3
f 3/10/4 7/22/4 6/11/4
f 3/13/5 4/23/5 8/14/5
f 8/16/6 4/24/6 1/17/6
