# Blender v2.79 (sub 0) OBJ File: ''
# www.blender.org
mtllib cube2x.mtl
o Cube
v 2.000000 -2.000000 -2.000000
v 2.000000 -2.000000 2.000000
v -2.000000 -2.000000 2.000000
v -1.999999 -2.000000 -2.000001
v 2.000001 2.000000 -1.999999
v 1.999999 2.000000 2.000001
v -2.000001 2.000000 1.999999
v -2.000000 2.000000 -2.000000
vn 0.0000 1.0000 0.0000
vn 0.0000 -1.0000 0.0000
vn -1.0000 0.0000 0.0000
vn 0.0000 0.0000 -1.0000
vn 1.0000 0.0000 0.0000
vn -0.0000 -0.0000 1.0000
usemtl Material
s off
f 4//1 2//1 1//1
f 6//2 8//2 5//2
f 2//3 5//3 1//3
f 3//4 6//4 2//4
f 3//5 8//5 7//5
f 8//6 1//6 5//6
f 4//1 3//1 2//1
f 6//2 7//2 8//2
f 2//3 6//3 5//3
f 3//4 7//4 6//4
f 3//5 4//5 8//5
f 8//6 4//6 1//6
