# Blender v2.79 (sub 0) OBJ File: 'level-space.blend'
# www.blender.org
o CrystalBottom_Plane.006
v -0.178049 3.503615 0.178049
v 0.178049 3.503615 0.178049
v -0.178049 3.503615 -0.178049
v 0.178049 3.503615 -0.178049
v 0.000000 4.196858 0.000000
v -0.178049 0.731126 0.178049
v 0.178049 0.731126 0.178049
v -0.178049 0.731126 -0.178049
v 0.178049 0.731126 -0.178049
v 0.035848 0.149665 0.018228
vn 1.0000 0.0000 0.0000
vn 0.0000 0.2488 -0.9686
vn 0.0000 0.2488 0.9686
vn 0.9686 0.2488 0.0000
vn -0.9686 0.2488 0.0000
vn -0.9385 -0.3452 0.0000
vn -1.0000 0.0000 0.0000
vn 0.0000 0.0000 -1.0000
vn 0.0000 0.0000 1.0000
vn 0.0000 -0.3198 -0.9475
vn 0.0000 -0.2650 0.9642
vn 0.9714 -0.2376 0.0000
s off
f 2//1 9//1 4//1
f 4//2 3//2 5//2
f 1//3 2//3 5//3
f 2//4 4//4 5//4
f 3//5 1//5 5//5
f 6//6 8//6 10//6
f 3//7 6//7 1//7
f 4//8 8//8 3//8
f 1//9 7//9 2//9
f 8//10 9//10 10//10
f 7//11 6//11 10//11
f 9//12 7//12 10//12
f 2//1 7//1 9//1
f 3//7 8//7 6//7
f 4//8 9//8 8//8
f 1//9 6//9 7//9
