# Blender v2.79 (sub 0) OBJ File: 'level-space.blend'
# www.blender.org
o Ground_Plane.003
v -1.000000 0.000000 1.000000
v 1.000000 0.000000 1.000000
v -1.000000 0.000000 -1.000000
v 1.000000 0.000000 -1.000000
v -1.000000 0.250000 1.000000
v 1.000000 0.250000 1.000000
v -1.000000 0.250000 -1.000000
v 1.000000 0.250000 -1.000000
v -1.250000 0.250000 1.250000
v 1.250000 0.250000 1.250000
v -1.250000 0.250000 -1.250000
v 1.250000 0.250000 -1.250000
v -1.250000 0.500000 1.250000
v 1.250000 0.500000 1.250000
v -1.250000 0.500000 -1.250000
v 1.250000 0.500000 -1.250000
v -1.562500 0.500000 1.562500
v 1.562500 0.500000 1.562500
v -1.562500 0.500000 -1.562500
v 1.562500 0.500000 -1.562500
v -1.562500 0.750000 1.562500
v 1.562500 0.750000 1.562500
v -1.562500 0.750000 -1.562500
v 1.562500 0.750000 -1.562500
v -1.953125 0.750000 1.953125
v 1.953125 0.750000 1.953125
v -1.953125 0.750000 -1.953125
v 1.953125 0.750000 -1.953125
v -1.953125 1.000000 1.953125
v 1.953125 1.000000 1.953125
v -1.953125 1.000000 -1.953125
v 1.953125 1.000000 -1.953125
v -7.324219 1.000000 7.324219
v 7.324219 1.000000 7.324219
v -7.324219 1.000000 -7.324219
v 7.324219 1.000000 -7.324219
v -7.324219 0.750000 7.324219
v 7.324219 0.750000 7.324219
v -7.324219 0.750000 -7.324219
v 7.324219 0.750000 -7.324219
v -7.324219 0.750000 7.324219
v 7.324219 0.750000 7.324219
v -7.324219 0.750000 -7.324219
v 7.324219 0.750000 -7.324219
v -7.507324 0.750000 7.507324
v 7.507324 0.750000 7.507324
v -7.507324 0.750000 -7.507324
v 7.507324 0.750000 -7.507324
v -7.507324 0.500000 7.507324
v 7.507324 0.500000 7.507324
v -7.507324 0.500000 -7.507324
v 7.507324 0.500000 -7.507324
v -7.732544 0.500000 7.732544
v 7.732544 0.500000 7.732544
v -7.732544 0.500000 -7.732544
v 7.732544 0.500000 -7.732544
v -7.732544 0.250000 7.732544
v 7.732544 0.250000 7.732544
v -7.732544 0.250000 -7.732544
v 7.732544 0.250000 -7.732544
v -7.964520 0.250000 7.964520
v 7.964520 0.250000 7.964520
v -7.964520 0.250000 -7.964520
v 7.964520 0.250000 -7.964520
v -7.964520 0.000000 7.964520
v 7.964520 0.000000 7.964520
v -7.964520 0.000000 -7.964520
v 7.964520 0.000000 -7.964520
v -24.875179 0.000000 24.875179
v 24.875179 0.000000 24.875179
v -24.875179 0.000000 -24.875179
v 24.875179 0.000000 -24.875179
v -24.875179 2.000000 24.875179
v 24.875179 2.000000 24.875179
v -24.875179 2.000000 -24.875179
v 24.875179 2.000000 -24.875179
v -24.875179 2.000000 24.875179
v 24.875179 2.000000 24.875179
v -24.875179 2.000000 -24.875179
v 24.875179 2.000000 -24.875179
v -28.782961 2.000000 28.782961
v 28.782961 2.000000 28.782961
v -28.782961 2.000000 -28.782961
v 28.782961 2.000000 -28.782961
v -28.782961 0.000000 28.782961
v 28.782961 0.000000 28.782961
v -28.782961 0.000000 -28.782961
v 28.782961 0.000000 -28.782961
vt 0.830269 0.870566
vt 0.852658 0.893409
vt 0.852658 0.870566
vt 0.864853 0.870566
vt 0.860757 0.893409
vt 0.864853 0.893409
vt 0.858755 0.870566
vt 0.854660 0.893409
vt 0.858755 0.893409
vt 0.877048 0.870566
vt 0.872952 0.893409
vt 0.877048 0.893409
vt 0.870950 0.870566
vt 0.866855 0.893409
vt 0.870950 0.893409
vt 0.877048 0.856142
vt 0.830269 0.851933
vt 0.830269 0.856142
vt 0.877048 0.849931
vt 0.830269 0.845721
vt 0.830269 0.849931
vt 0.877048 0.868564
vt 0.830269 0.864355
vt 0.830269 0.868564
vt 0.877048 0.862353
vt 0.830269 0.858144
vt 0.830269 0.862353
vt 0.816072 0.845721
vt 0.811977 0.893409
vt 0.816072 0.893409
vt 0.809975 0.845721
vt 0.805879 0.893409
vt 0.809975 0.893409
vt 0.828267 0.845721
vt 0.824172 0.893409
vt 0.828267 0.893409
vt 0.822170 0.845721
vt 0.818074 0.893409
vt 0.822170 0.893409
vt 0.791682 0.845721
vt 0.787586 0.893409
vt 0.791682 0.893409
vt 0.785584 0.845721
vt 0.781489 0.893409
vt 0.785584 0.893409
vt 0.803877 0.845721
vt 0.799782 0.893409
vt 0.803877 0.893409
vt 0.797780 0.845721
vt 0.793684 0.893409
vt 0.797780 0.893409
vt 0.816072 0.796032
vt 0.811977 0.843719
vt 0.816072 0.843719
vt 0.809975 0.796032
vt 0.805879 0.843719
vt 0.809975 0.843719
vt 0.828267 0.796032
vt 0.824172 0.843719
vt 0.828267 0.843719
vt 0.822170 0.796032
vt 0.818074 0.843719
vt 0.822170 0.843719
vt 0.852658 0.796032
vt 0.842464 0.843719
vt 0.852658 0.843719
vt 0.840462 0.796032
vt 0.830269 0.843719
vt 0.840462 0.843719
vt 0.877048 0.796032
vt 0.866855 0.843719
vt 0.877048 0.843719
vt 0.864853 0.796032
vt 0.854660 0.843719
vt 0.864853 0.843719
vt 0.791682 0.796032
vt 0.787586 0.843719
vt 0.791682 0.843719
vt 0.785584 0.796032
vt 0.781489 0.843719
vt 0.785584 0.843719
vt 0.803877 0.796032
vt 0.799782 0.843719
vt 0.803877 0.843719
vt 0.797780 0.796032
vt 0.793684 0.843719
vt 0.797780 0.843719
vt 0.389243 0.992788
vt 0.196123 0.895411
vt 0.196123 0.992788
vt 0.974609 0.199759
vt 0.879050 0.396515
vt 0.974609 0.396515
vt 0.194121 0.992788
vt 0.001001 0.895411
vt 0.001001 0.992788
vt 0.974609 0.001001
vt 0.879050 0.197757
vt 0.974609 0.197757
vt 0.974609 0.992788
vt 0.781489 0.988579
vt 0.781489 0.992788
vt 0.998999 0.597274
vt 0.994903 0.794030
vt 0.998999 0.794030
vt 0.974609 0.986577
vt 0.781489 0.982367
vt 0.781489 0.986577
vt 0.998999 0.398517
vt 0.994903 0.595272
vt 0.998999 0.595272
vt 0.781489 0.980365
vt 0.974609 0.976156
vt 0.781489 0.976156
vt 0.998999 0.396515
vt 0.994903 0.199759
vt 0.994903 0.396515
vt 0.781489 0.974154
vt 0.974609 0.969945
vt 0.781489 0.969945
vt 0.998999 0.197757
vt 0.994903 0.001001
vt 0.994903 0.197757
vt 0.974609 0.967943
vt 0.781489 0.963734
vt 0.781489 0.967943
vt 0.992901 0.796032
vt 0.988806 0.992788
vt 0.992901 0.992788
vt 0.974609 0.961732
vt 0.781489 0.957523
vt 0.781489 0.961732
vt 0.992901 0.597274
vt 0.988806 0.794030
vt 0.992901 0.794030
vt 0.974609 0.955521
vt 0.781489 0.951312
vt 0.781489 0.955521
vt 0.992901 0.398517
vt 0.988806 0.595272
vt 0.992901 0.595272
vt 0.974609 0.949310
vt 0.781489 0.945100
vt 0.781489 0.949310
vt 0.992901 0.199759
vt 0.988806 0.396515
vt 0.992901 0.396515
vt 0.781489 0.943098
vt 0.974609 0.938889
vt 0.781489 0.938889
vt 0.992901 0.197757
vt 0.988806 0.001001
vt 0.988806 0.197757
vt 0.781489 0.936887
vt 0.974609 0.932678
vt 0.781489 0.932678
vt 0.986804 0.992788
vt 0.982708 0.796032
vt 0.982708 0.992788
vt 0.974609 0.930676
vt 0.781489 0.926467
vt 0.781489 0.930676
vt 0.986804 0.001001
vt 0.982708 0.197757
vt 0.986804 0.197757
vt 0.974609 0.899620
vt 0.781489 0.895411
vt 0.781489 0.899620
vt 0.980706 0.796032
vt 0.976611 0.992788
vt 0.980706 0.992788
vt 0.974609 0.905831
vt 0.781489 0.901622
vt 0.781489 0.905831
vt 0.998999 0.796032
vt 0.994903 0.992788
vt 0.998999 0.992788
vt 0.974609 0.912042
vt 0.781489 0.907833
vt 0.781489 0.912042
vt 0.986804 0.199759
vt 0.982708 0.396515
vt 0.986804 0.396515
vt 0.974609 0.918254
vt 0.781489 0.914044
vt 0.781489 0.918254
vt 0.986804 0.398517
vt 0.982708 0.595272
vt 0.986804 0.595272
vt 0.974609 0.924465
vt 0.781489 0.920256
vt 0.781489 0.924465
vt 0.986804 0.597274
vt 0.982708 0.794030
vt 0.986804 0.794030
vt 0.391245 0.398517
vt 0.779487 0.794030
vt 0.779487 0.398517
vt 0.001001 0.001001
vt 0.389243 0.396515
vt 0.389243 0.001001
vt 0.001001 0.398517
vt 0.389243 0.794030
vt 0.389243 0.398517
vt 0.391245 0.001001
vt 0.779487 0.396515
vt 0.779487 0.001001
vt 0.779487 0.967943
vt 0.391245 0.945100
vt 0.391245 0.967943
vt 0.950218 0.398517
vt 0.927830 0.794030
vt 0.950218 0.794030
vt 0.779487 0.992788
vt 0.391245 0.969945
vt 0.391245 0.992788
vt 0.974609 0.398517
vt 0.952220 0.794030
vt 0.974609 0.794030
vt 0.391245 0.998999
vt 0.779487 0.994790
vt 0.391245 0.994790
vt 0.980706 0.794030
vt 0.976611 0.398517
vt 0.976611 0.794030
vt 0.001001 0.998999
vt 0.389243 0.994790
vt 0.001001 0.994790
vt 0.980706 0.396515
vt 0.976611 0.001001
vt 0.976611 0.396515
vt 0.389243 0.893409
vt 0.001001 0.796032
vt 0.001001 0.893409
vt 0.877048 0.001001
vt 0.781489 0.396515
vt 0.877048 0.396515
vt 0.779487 0.893409
vt 0.391245 0.796032
vt 0.391245 0.893409
vt 0.877048 0.398517
vt 0.781489 0.794030
vt 0.877048 0.794030
vt 0.779487 0.943098
vt 0.391245 0.920256
vt 0.391245 0.943098
vt 0.925828 0.398517
vt 0.903440 0.794030
vt 0.925828 0.794030
vt 0.779487 0.918254
vt 0.391245 0.895411
vt 0.391245 0.918254
vt 0.901438 0.398517
vt 0.879050 0.794030
vt 0.901438 0.794030
vt 0.830269 0.893409
vt 0.860757 0.870566
vt 0.854660 0.870566
vt 0.872952 0.870566
vt 0.866855 0.870566
vt 0.877048 0.851933
vt 0.877048 0.845721
vt 0.877048 0.864355
vt 0.877048 0.858144
vt 0.811977 0.845721
vt 0.805879 0.845721
vt 0.824172 0.845721
vt 0.818074 0.845721
vt 0.787586 0.845721
vt 0.781489 0.845721
vt 0.799782 0.845721
vt 0.793684 0.845721
vt 0.811977 0.796032
vt 0.805879 0.796032
vt 0.824172 0.796032
vt 0.818074 0.796032
vt 0.842464 0.796032
vt 0.830269 0.796032
vt 0.866855 0.796032
vt 0.854660 0.796032
vt 0.787586 0.796032
vt 0.781489 0.796032
vt 0.799782 0.796032
vt 0.793684 0.796032
vt 0.389243 0.895411
vt 0.879050 0.199759
vt 0.194121 0.895411
vt 0.879050 0.001001
vt 0.974609 0.988579
vt 0.994903 0.597274
vt 0.974609 0.982367
vt 0.994903 0.398517
vt 0.974609 0.980365
vt 0.998999 0.199759
vt 0.974609 0.974154
vt 0.998999 0.001001
vt 0.974609 0.963734
vt 0.988806 0.796032
vt 0.974609 0.957523
vt 0.988806 0.597274
vt 0.974609 0.951312
vt 0.988806 0.398517
vt 0.974609 0.945100
vt 0.988806 0.199759
vt 0.974609 0.943098
vt 0.992901 0.001001
vt 0.974609 0.936887
vt 0.986804 0.796032
vt 0.974609 0.926467
vt 0.982708 0.001001
vt 0.974609 0.895411
vt 0.976611 0.796032
vt 0.974609 0.901622
vt 0.994903 0.796032
vt 0.974609 0.907833
vt 0.982708 0.199759
vt 0.974609 0.914044
vt 0.982708 0.398517
vt 0.974609 0.920256
vt 0.982708 0.597274
vt 0.391245 0.794030
vt 0.001001 0.396515
vt 0.001001 0.794030
vt 0.391245 0.396515
vt 0.779487 0.945100
vt 0.927830 0.398517
vt 0.779487 0.969945
vt 0.952220 0.398517
vt 0.779487 0.998999
vt 0.980706 0.398517
vt 0.389243 0.998999
vt 0.980706 0.001001
vt 0.389243 0.796032
vt 0.781489 0.001001
vt 0.779487 0.796032
vt 0.781489 0.398517
vt 0.779487 0.920256
vt 0.903440 0.398517
vt 0.779487 0.895411
vt 0.879050 0.398517
vn 0.0000 1.0000 0.0000
vn -1.0000 0.0000 0.0000
vn 1.0000 0.0000 0.0000
vn 0.0000 0.0000 1.0000
vn 0.0000 0.0000 -1.0000
s off
f 2/1/1 3/2/1 1/3/1
f 2/4/2 8/5/2 4/6/2
f 3/7/3 5/8/3 1/9/3
f 4/10/4 7/11/4 3/12/4
f 1/13/5 6/14/5 2/15/5
f 6/16/1 12/17/1 8/18/1
f 7/19/1 9/20/1 5/21/1
f 8/22/1 11/23/1 7/24/1
f 5/25/1 10/26/1 6/27/1
f 12/28/4 15/29/4 11/30/4
f 9/31/5 14/32/5 10/33/5
f 10/34/2 16/35/2 12/36/2
f 11/37/3 13/38/3 9/39/3
f 14/40/1 20/41/1 16/42/1
f 15/43/1 17/44/1 13/45/1
f 16/46/1 19/47/1 15/48/1
f 13/49/1 18/50/1 14/51/1
f 19/52/3 21/53/3 17/54/3
f 20/55/4 23/56/4 19/57/4
f 17/58/5 22/59/5 18/60/5
f 18/61/2 24/62/2 20/63/2
f 24/64/1 27/65/1 23/66/1
f 21/67/1 26/68/1 22/69/1
f 22/70/1 28/71/1 24/72/1
f 23/73/1 25/74/1 21/75/1
f 26/76/2 32/77/2 28/78/2
f 27/79/3 29/80/3 25/81/3
f 28/82/4 31/83/4 27/84/4
f 25/85/5 30/86/5 26/87/5
f 32/88/1 35/89/1 31/90/1
f 29/91/1 34/92/1 30/93/1
f 30/94/1 36/95/1 32/96/1
f 31/97/1 33/98/1 29/99/1
f 33/100/4 38/101/4 34/102/4
f 34/103/3 40/104/3 36/105/3
f 35/106/2 37/107/2 33/108/2
f 36/109/5 39/110/5 35/111/5
f 40/112/4 42/113/4 44/114/4
f 37/115/4 43/116/4 41/117/4
f 39/118/4 44/119/4 43/120/4
f 38/121/4 41/122/4 42/123/4
f 44/124/1 47/125/1 43/126/1
f 41/127/1 46/128/1 42/129/1
f 42/130/1 48/131/1 44/132/1
f 43/133/1 45/134/1 41/135/1
f 46/136/3 52/137/3 48/138/3
f 47/139/2 49/140/2 45/141/2
f 48/142/5 51/143/5 47/144/5
f 45/145/4 50/146/4 46/147/4
f 52/148/1 54/149/1 56/150/1
f 49/151/1 55/152/1 53/153/1
f 51/154/1 56/155/1 55/156/1
f 50/157/1 53/158/1 54/159/1
f 56/160/5 59/161/5 55/162/5
f 53/163/4 58/164/4 54/165/4
f 54/166/3 60/167/3 56/168/3
f 55/169/2 57/170/2 53/171/2
f 58/172/1 64/173/1 60/174/1
f 59/175/1 61/176/1 57/177/1
f 60/178/1 63/179/1 59/180/1
f 57/181/1 62/182/1 58/183/1
f 63/184/2 65/185/2 61/186/2
f 64/187/5 67/188/5 63/189/5
f 61/190/4 66/191/4 62/192/4
f 62/193/3 68/194/3 64/195/3
f 68/196/1 71/197/1 67/198/1
f 65/199/1 70/200/1 66/201/1
f 66/202/1 72/203/1 68/204/1
f 67/205/1 69/206/1 65/207/1
f 70/208/2 76/209/2 72/210/2
f 71/211/3 73/212/3 69/213/3
f 72/214/4 75/215/4 71/216/4
f 69/217/5 74/218/5 70/219/5
f 75/220/4 80/221/4 79/222/4
f 74/223/4 77/224/4 78/225/4
f 76/226/4 78/227/4 80/228/4
f 73/229/4 79/230/4 77/231/4
f 77/232/1 82/233/1 78/234/1
f 78/235/1 84/236/1 80/237/1
f 79/238/1 81/239/1 77/240/1
f 80/241/1 83/242/1 79/243/1
f 82/244/3 88/245/3 84/246/3
f 83/247/2 85/248/2 81/249/2
f 84/250/5 87/251/5 83/252/5
f 81/253/4 86/254/4 82/255/4
f 2/1/1 4/256/1 3/2/1
f 2/4/2 6/257/2 8/5/2
f 3/7/3 7/258/3 5/8/3
f 4/10/4 8/259/4 7/11/4
f 1/13/5 5/260/5 6/14/5
f 6/16/1 10/261/1 12/17/1
f 7/19/1 11/262/1 9/20/1
f 8/22/1 12/263/1 11/23/1
f 5/25/1 9/264/1 10/26/1
f 12/28/4 16/265/4 15/29/4
f 9/31/5 13/266/5 14/32/5
f 10/34/2 14/267/2 16/35/2
f 11/37/3 15/268/3 13/38/3
f 14/40/1 18/269/1 20/41/1
f 15/43/1 19/270/1 17/44/1
f 16/46/1 20/271/1 19/47/1
f 13/49/1 17/272/1 18/50/1
f 19/52/3 23/273/3 21/53/3
f 20/55/4 24/274/4 23/56/4
f 17/58/5 21/275/5 22/59/5
f 18/61/2 22/276/2 24/62/2
f 24/64/1 28/277/1 27/65/1
f 21/67/1 25/278/1 26/68/1
f 22/70/1 26/279/1 28/71/1
f 23/73/1 27/280/1 25/74/1
f 26/76/2 30/281/2 32/77/2
f 27/79/3 31/282/3 29/80/3
f 28/82/4 32/283/4 31/83/4
f 25/85/5 29/284/5 30/86/5
f 32/88/1 36/285/1 35/89/1
f 29/91/1 33/286/1 34/92/1
f 30/94/1 34/287/1 36/95/1
f 31/97/1 35/288/1 33/98/1
f 33/100/4 37/289/4 38/101/4
f 34/103/3 38/290/3 40/104/3
f 35/106/2 39/291/2 37/107/2
f 36/109/5 40/292/5 39/110/5
f 40/112/4 38/293/4 42/113/4
f 37/115/4 39/294/4 43/116/4
f 39/118/4 40/295/4 44/119/4
f 38/121/4 37/296/4 41/122/4
f 44/124/1 48/297/1 47/125/1
f 41/127/1 45/298/1 46/128/1
f 42/130/1 46/299/1 48/131/1
f 43/133/1 47/300/1 45/134/1
f 46/136/3 50/301/3 52/137/3
f 47/139/2 51/302/2 49/140/2
f 48/142/5 52/303/5 51/143/5
f 45/145/4 49/304/4 50/146/4
f 52/148/1 50/305/1 54/149/1
f 49/151/1 51/306/1 55/152/1
f 51/154/1 52/307/1 56/155/1
f 50/157/1 49/308/1 53/158/1
f 56/160/5 60/309/5 59/161/5
f 53/163/4 57/310/4 58/164/4
f 54/166/3 58/311/3 60/167/3
f 55/169/2 59/312/2 57/170/2
f 58/172/1 62/313/1 64/173/1
f 59/175/1 63/314/1 61/176/1
f 60/178/1 64/315/1 63/179/1
f 57/181/1 61/316/1 62/182/1
f 63/184/2 67/317/2 65/185/2
f 64/187/5 68/318/5 67/188/5
f 61/190/4 65/319/4 66/191/4
f 62/193/3 66/320/3 68/194/3
f 68/196/1 72/321/1 71/197/1
f 65/199/1 69/322/1 70/200/1
f 66/202/1 70/323/1 72/203/1
f 67/205/1 71/324/1 69/206/1
f 70/208/2 74/325/2 76/209/2
f 71/211/3 75/326/3 73/212/3
f 72/214/4 76/327/4 75/215/4
f 69/217/5 73/328/5 74/218/5
f 75/220/4 76/329/4 80/221/4
f 74/223/4 73/330/4 77/224/4
f 76/226/4 74/331/4 78/227/4
f 73/229/4 75/332/4 79/230/4
f 77/232/1 81/333/1 82/233/1
f 78/235/1 82/334/1 84/236/1
f 79/238/1 83/335/1 81/239/1
f 80/241/1 84/336/1 83/242/1
f 82/244/3 86/337/3 88/245/3
f 83/247/2 87/338/2 85/248/2
f 84/250/5 88/339/5 87/251/5
f 81/253/4 85/340/4 86/254/4
