# Blender v2.79 (sub 0) OBJ File: 'level-space.blend'
# www.blender.org
o Roof_Cube.003
v -3.000000 2.856980 3.000000
v -3.000000 3.156980 3.000000
v -3.000000 2.856980 -3.000000
v -3.000000 3.156980 -3.000000
v 3.000000 2.856980 3.000000
v 3.000000 3.156980 3.000000
v 3.000000 2.856980 -3.000000
v 3.000000 3.156980 -3.000000
v 2.636026 1.000000 -2.664231
v 2.636026 3.000000 -2.664231
v 2.636026 1.000000 -2.864232
v 2.636026 3.000000 -2.864232
v 2.836025 1.000000 -2.664231
v 2.836025 3.000000 -2.664231
v 2.836025 1.000000 -2.864232
v 2.836025 3.000000 -2.864232
v -2.876108 1.000000 -2.664231
v -2.876108 3.000000 -2.664231
v -2.876108 1.000000 -2.864232
v -2.876108 3.000000 -2.864232
v -2.676108 1.000000 -2.664231
v -2.676108 3.000000 -2.664231
v -2.676108 1.000000 -2.864232
v -2.676108 3.000000 -2.864232
v 2.636026 1.000000 2.877592
v 2.636026 3.000000 2.877592
v 2.636026 1.000000 2.677593
v 2.636026 3.000000 2.677593
v 2.836025 1.000000 2.877592
v 2.836025 3.000000 2.877592
v 2.836025 1.000000 2.677593
v 2.836025 3.000000 2.677593
v -2.876108 1.000000 2.877592
v -2.876108 3.000000 2.877592
v -2.876108 1.000000 2.677593
v -2.876108 3.000000 2.677593
v -2.676108 1.000000 2.877592
v -2.676108 3.000000 2.877592
v -2.676108 1.000000 2.677593
v -2.676108 3.000000 2.677593
v -1.000000 3.156980 1.000000
v -1.000000 2.856980 1.000000
v 1.000000 3.156980 1.000000
v 1.000000 2.856980 1.000000
v -1.000000 3.156980 -1.000000
v -1.000000 2.856980 -1.000000
v 1.000000 3.156980 -1.000000
v 1.000000 2.856980 -1.000000
vt 0.667668 0.001001
vt 0.998999 0.332332
vt 0.998999 0.001001
vt 0.001001 0.001001
vt 0.332332 0.332332
vt 0.332332 0.001001
vt 0.001001 0.334334
vt 0.332332 0.665666
vt 0.332332 0.334334
vt 0.334334 0.001001
vt 0.665666 0.332332
vt 0.665666 0.001001
vt 0.334334 0.334334
vt 0.444778 0.555222
vt 0.444778 0.444778
vt 0.221889 0.888555
vt 0.001001 0.998999
vt 0.332332 0.998999
vt 0.686499 0.334334
vt 0.667668 0.665666
vt 0.686499 0.665666
vt 0.665666 0.686499
vt 0.334334 0.667668
vt 0.334334 0.686499
vt 0.707332 0.334334
vt 0.688501 0.665666
vt 0.707332 0.665666
vt 0.665666 0.707332
vt 0.334334 0.688501
vt 0.334334 0.707332
vt 0.688501 0.688501
vt 0.707332 0.707332
vt 0.707332 0.688501
vt 0.667668 0.688501
vt 0.686499 0.707332
vt 0.686499 0.688501
vt 0.728166 0.334334
vt 0.709334 0.665666
vt 0.728166 0.665666
vt 0.665666 0.728166
vt 0.334334 0.709334
vt 0.334334 0.728166
vt 0.748999 0.334334
vt 0.730168 0.665666
vt 0.748999 0.665666
vt 0.665666 0.748999
vt 0.334334 0.730168
vt 0.334334 0.748999
vt 0.688501 0.667668
vt 0.707332 0.686499
vt 0.707332 0.667668
vt 0.667668 0.667668
vt 0.686499 0.686499
vt 0.686499 0.667668
vt 0.769832 0.334334
vt 0.751001 0.665666
vt 0.769832 0.665666
vt 0.665666 0.769832
vt 0.334334 0.751001
vt 0.334334 0.769832
vt 0.790666 0.334334
vt 0.771834 0.665666
vt 0.790666 0.665666
vt 0.665666 0.790666
vt 0.334334 0.771834
vt 0.334334 0.790666
vt 0.730168 0.688501
vt 0.748999 0.707332
vt 0.748999 0.688501
vt 0.709334 0.688501
vt 0.728166 0.707332
vt 0.728166 0.688501
vt 0.811499 0.334334
vt 0.792668 0.665666
vt 0.811499 0.665666
vt 0.665666 0.811499
vt 0.334334 0.792668
vt 0.334334 0.811499
vt 0.832332 0.334334
vt 0.813501 0.665666
vt 0.832332 0.665666
vt 0.665666 0.832332
vt 0.334334 0.813501
vt 0.334334 0.832332
vt 0.730168 0.667668
vt 0.748999 0.686499
vt 0.748999 0.667668
vt 0.709334 0.667668
vt 0.728166 0.686499
vt 0.728166 0.667668
vt 0.000000 0.000000
vt 0.000000 0.000000
vt 0.000000 0.000000
vt 0.000000 0.000000
vt 0.000000 0.000000
vt 0.111445 0.778111
vt 0.332332 0.667668
vt 0.001001 0.667668
vt 0.000000 0.000000
vt 0.000000 0.000000
vt 0.000000 0.000000
vt 0.555222 0.555222
vt 0.334334 0.665666
vt 0.665666 0.665666
vt 0.667668 0.332332
vt 0.001001 0.332332
vt 0.001001 0.665666
vt 0.334334 0.332332
vt 0.555222 0.444778
vt 0.665666 0.334334
vt 0.221889 0.778111
vt 0.111445 0.888555
vt 0.667668 0.334334
vt 0.665666 0.667668
vt 0.688501 0.334334
vt 0.665666 0.688501
vt 0.688501 0.707332
vt 0.667668 0.707332
vt 0.709334 0.334334
vt 0.665666 0.709334
vt 0.730168 0.334334
vt 0.665666 0.730168
vt 0.688501 0.686499
vt 0.667668 0.686499
vt 0.751001 0.334334
vt 0.665666 0.751001
vt 0.771834 0.334334
vt 0.665666 0.771834
vt 0.730168 0.707332
vt 0.709334 0.707332
vt 0.792668 0.334334
vt 0.665666 0.792668
vt 0.813501 0.334334
vt 0.665666 0.813501
vt 0.730168 0.686499
vt 0.709334 0.686499
vn -1.0000 0.0000 0.0000
vn 0.0000 0.0000 -1.0000
vn 1.0000 0.0000 0.0000
vn 0.0000 0.0000 1.0000
vn 0.0000 -1.0000 -0.0000
vn 0.0000 1.0000 0.0000
s off
f 2/1/1 3/2/1 1/3/1
f 4/4/2 7/5/2 3/6/2
f 8/7/3 5/8/3 7/9/3
f 6/10/4 1/11/4 5/12/4
f 7/13/5 44/14/5 48/15/5
f 43/16/6 2/17/6 6/18/6
f 10/19/1 11/20/1 9/21/1
f 12/22/2 15/23/2 11/24/2
f 16/25/3 13/26/3 15/27/3
f 14/28/4 9/29/4 13/30/4
f 15/31/5 9/32/5 11/33/5
f 12/34/6 14/35/6 16/36/6
f 18/37/1 19/38/1 17/39/1
f 20/40/2 23/41/2 19/42/2
f 24/43/3 21/44/3 23/45/3
f 22/46/4 17/47/4 21/48/4
f 23/49/5 17/50/5 19/51/5
f 20/52/6 22/53/6 24/54/6
f 26/55/1 27/56/1 25/57/1
f 28/58/2 31/59/2 27/60/2
f 32/61/3 29/62/3 31/63/3
f 30/64/4 25/65/4 29/66/4
f 31/67/5 25/68/5 27/69/5
f 28/70/6 30/71/6 32/72/6
f 34/73/1 35/74/1 33/75/1
f 36/76/2 39/77/2 35/78/2
f 40/79/3 37/80/3 39/81/3
f 38/82/4 33/83/4 37/84/4
f 39/85/5 33/86/5 35/87/5
f 36/88/6 38/89/6 40/90/6
f 43/91/1 48/92/1 44/93/1
f 47/94/4 46/95/4 48/92/4
f 45/96/6 8/97/6 4/98/6
f 45/99/3 42/100/3 46/95/3
f 41/101/2 44/93/2 42/100/2
f 42/102/5 5/103/5 1/104/5
f 2/1/1 4/105/1 3/2/1
f 4/4/2 8/106/2 7/5/2
f 8/7/3 6/107/3 5/8/3
f 6/10/4 2/108/4 1/11/4
f 46/109/5 3/110/5 7/13/5
f 7/13/5 5/103/5 44/14/5
f 48/15/5 46/109/5 7/13/5
f 6/18/6 8/97/6 47/111/6
f 43/16/6 41/112/6 2/17/6
f 6/18/6 47/111/6 43/16/6
f 10/19/1 12/113/1 11/20/1
f 12/22/2 16/114/2 15/23/2
f 16/25/3 14/115/3 13/26/3
f 14/28/4 10/116/4 9/29/4
f 15/31/5 13/117/5 9/32/5
f 12/34/6 10/118/6 14/35/6
f 18/37/1 20/119/1 19/38/1
f 20/40/2 24/120/2 23/41/2
f 24/43/3 22/121/3 21/44/3
f 22/46/4 18/122/4 17/47/4
f 23/49/5 21/123/5 17/50/5
f 20/52/6 18/124/6 22/53/6
f 26/55/1 28/125/1 27/56/1
f 28/58/2 32/126/2 31/59/2
f 32/61/3 30/127/3 29/62/3
f 30/64/4 26/128/4 25/65/4
f 31/67/5 29/129/5 25/68/5
f 28/70/6 26/130/6 30/71/6
f 34/73/1 36/131/1 35/74/1
f 36/76/2 40/132/2 39/77/2
f 40/79/3 38/133/3 37/80/3
f 38/82/4 34/134/4 33/83/4
f 39/85/5 37/135/5 33/86/5
f 36/88/6 34/136/6 38/89/6
f 43/91/1 47/94/1 48/92/1
f 47/94/4 45/99/4 46/95/4
f 4/98/6 2/17/6 41/112/6
f 45/96/6 47/111/6 8/97/6
f 4/98/6 41/112/6 45/96/6
f 45/99/3 41/101/3 42/100/3
f 41/101/2 43/91/2 44/93/2
f 3/110/5 46/109/5 42/102/5
f 42/102/5 44/14/5 5/103/5
f 1/104/5 3/110/5 42/102/5
