# Blender v2.79 (sub 0) OBJ File: 'level-space.blend'
# www.blender.org
o Stairs2_Cube.002
v 24.310421 1.734232 0.999274
v 24.310421 1.994232 0.999274
v 24.872921 1.994232 0.999274
v 24.310421 1.734232 -1.000726
v 24.310421 1.994232 -1.000726
v 24.872921 1.994232 -1.000726
v 23.810421 1.734232 0.999274
v 23.810421 1.734232 -1.000726
v 23.810421 1.484232 0.999274
v 23.810421 1.484232 -1.000726
v 23.310421 1.484232 0.999274
v 23.310421 1.484232 -1.000726
v 23.310421 1.234232 0.999274
v 23.310421 1.234232 -1.000726
v 22.810421 1.234232 0.999274
v 22.810421 1.234232 -1.000726
v 22.810421 0.984232 0.999274
v 22.810421 0.984232 -1.000726
v 22.310421 0.984232 0.999274
v 22.310421 0.984232 -1.000726
v 22.310421 0.734232 0.999274
v 22.310421 0.734232 -1.000726
v 21.810421 0.734232 0.999274
v 21.810421 0.734232 -1.000726
v 21.810421 0.484232 0.999274
v 21.810421 0.484232 -1.000726
v 21.310421 0.484232 0.999274
v 21.310421 0.484232 -1.000726
v 21.310421 0.234232 0.999274
v 21.310421 0.234232 -1.000726
v 20.810421 0.234232 0.999274
v 20.810421 0.234232 -1.000726
v 20.810421 -0.015768 0.999274
v 20.810421 -0.015768 -1.000726
v 24.872921 -0.005768 0.999274
v 24.872921 -0.005768 -1.000726
vt 0.986343 0.506284
vt 0.986343 0.443916
vt 0.506591 0.443916
vt 0.971951 0.527716
vt 0.971951 0.987909
vt 0.842522 0.987909
vt 0.841136 0.527716
vt 0.841136 0.987909
vt 0.726087 0.987909
vt 0.506591 0.441760
vt 0.986343 0.441760
vt 0.986343 0.381791
vt 0.724782 0.527716
vt 0.724782 0.987909
vt 0.609734 0.987909
vt 0.506591 0.379677
vt 0.986343 0.379677
vt 0.986343 0.319708
vt 0.608429 0.527716
vt 0.608429 0.987909
vt 0.493380 0.987909
vt 0.506591 0.317594
vt 0.986343 0.317594
vt 0.986343 0.257625
vt 0.492075 0.527716
vt 0.492075 0.987909
vt 0.377027 0.987909
vt 0.506591 0.255511
vt 0.986343 0.255511
vt 0.986343 0.195542
vt 0.375722 0.527716
vt 0.375722 0.987909
vt 0.260674 0.987909
vt 0.506591 0.193428
vt 0.986343 0.193428
vt 0.986343 0.133459
vt 0.259369 0.527716
vt 0.259369 0.987909
vt 0.144321 0.987909
vt 0.506591 0.131345
vt 0.986343 0.131345
vt 0.986343 0.071376
vt 0.143016 0.527716
vt 0.143016 0.987909
vt 0.027967 0.987909
vt 0.506591 0.069262
vt 0.986343 0.069262
vt 0.986343 0.009293
vt 0.485474 0.508787
vt 0.325437 0.394666
vt 0.352289 0.340962
vt 0.317954 0.335683
vt 0.344806 0.281979
vt 0.265324 0.006747
vt 0.506591 0.506284
vt 0.842522 0.527716
vt 0.726087 0.527716
vt 0.506591 0.381791
vt 0.609734 0.527716
vt 0.506591 0.319708
vt 0.493380 0.527716
vt 0.506591 0.257625
vt 0.377027 0.527716
vt 0.506591 0.195542
vt 0.260674 0.527716
vt 0.506591 0.133459
vt 0.144321 0.527716
vt 0.506591 0.071376
vt 0.027967 0.527716
vt 0.506591 0.009293
vt 0.298585 0.448370
vt 0.270660 0.508787
vt 0.270659 0.448370
vt 0.459697 0.126147
vt 0.486549 0.072444
vt 0.459697 0.072444
vt 0.432845 0.179851
vt 0.432845 0.126147
vt 0.405993 0.233555
vt 0.405993 0.179851
vt 0.379141 0.287259
vt 0.379141 0.233555
vt 0.352289 0.287259
vt 0.325437 0.340962
vt 0.298585 0.394666
vt 0.480139 0.006747
vt 0.452213 0.067164
vt 0.480139 0.067164
vt 0.425361 0.120868
vt 0.452213 0.120868
vt 0.398509 0.174572
vt 0.425361 0.174572
vt 0.371657 0.228275
vt 0.398509 0.228275
vt 0.371657 0.281979
vt 0.344806 0.335683
vt 0.291102 0.389387
vt 0.317954 0.389387
vt 0.264250 0.443090
vt 0.291102 0.443090
vn -1.0000 0.0000 0.0000
vn 0.0000 1.0000 0.0000
vn 0.0000 -0.0000 1.0000
vn 0.0000 0.0000 -1.0000
s off
f 5/1/1 4/2/1 1/3/1
f 3/4/2 6/5/2 5/6/2
f 1/7/2 4/8/2 8/9/2
f 7/10/1 8/11/1 10/12/1
f 9/13/2 10/14/2 12/15/2
f 11/16/1 12/17/1 14/18/1
f 13/19/2 14/20/2 16/21/2
f 15/22/1 16/23/1 18/24/1
f 17/25/2 18/26/2 20/27/2
f 19/28/1 20/29/1 22/30/1
f 21/31/2 22/32/2 24/33/2
f 23/34/1 24/35/1 26/36/1
f 25/37/2 26/38/2 28/39/2
f 27/40/1 28/41/1 30/42/1
f 29/43/2 30/44/2 32/45/2
f 31/46/1 32/47/1 34/48/1
f 35/49/3 9/50/3 13/51/3
f 26/52/4 22/53/4 36/54/4
f 5/1/1 1/3/1 2/55/1
f 3/4/2 5/6/2 2/56/2
f 1/7/2 8/9/2 7/57/2
f 7/10/1 10/12/1 9/58/1
f 9/13/2 12/15/2 11/59/2
f 11/16/1 14/18/1 13/60/1
f 13/19/2 16/21/2 15/61/2
f 15/22/1 18/24/1 17/62/1
f 17/25/2 20/27/2 19/63/2
f 19/28/1 22/30/1 21/64/1
f 21/31/2 24/33/2 23/65/2
f 23/34/1 26/36/1 25/66/1
f 25/37/2 28/39/2 27/67/2
f 27/40/1 30/42/1 29/68/1
f 29/43/2 32/45/2 31/69/2
f 31/46/1 34/48/1 33/70/1
f 1/71/3 3/72/3 2/73/3
f 3/72/3 1/71/3 35/49/3
f 35/49/3 29/74/3 33/75/3
f 33/75/3 29/74/3 31/76/3
f 29/74/3 25/77/3 27/78/3
f 25/77/3 21/79/3 23/80/3
f 21/79/3 17/81/3 19/82/3
f 17/81/3 13/51/3 15/83/3
f 13/51/3 9/50/3 11/84/3
f 9/50/3 1/71/3 7/85/3
f 35/49/3 25/77/3 29/74/3
f 25/77/3 35/49/3 21/79/3
f 21/79/3 35/49/3 17/81/3
f 35/49/3 13/51/3 17/81/3
f 9/50/3 35/49/3 1/71/3
f 6/86/4 4/87/4 5/88/4
f 4/87/4 10/89/4 8/90/4
f 10/89/4 14/91/4 12/92/4
f 14/91/4 18/93/4 16/94/4
f 18/93/4 22/53/4 20/95/4
f 22/53/4 26/52/4 24/96/4
f 26/52/4 30/97/4 28/98/4
f 30/97/4 34/99/4 32/100/4
f 34/99/4 30/97/4 36/54/4
f 36/54/4 4/87/4 6/86/4
f 30/97/4 26/52/4 36/54/4
f 4/87/4 36/54/4 10/89/4
f 14/91/4 36/54/4 18/93/4
f 18/93/4 36/54/4 22/53/4
f 14/91/4 10/89/4 36/54/4
