# Blender v2.79 (sub 0) OBJ File: ''
# www.blender.org
mtllib Cube.mtl
o Cube
v 0.524519 0.683013 0.091506
v 0.774519 -0.183013 -0.341506
v -0.091506 -0.183013 -0.841506
v -0.341506 0.683013 -0.408493
v 0.091507 0.183012 0.841506
v 0.341506 -0.683013 0.408493
v -0.524519 -0.683013 -0.091506
v -0.774519 0.183013 0.341506
vt 0.333333 0.666667
vt 0.000000 1.000000
vt 0.000000 0.666667
vt 0.666667 0.666667
vt 0.333333 0.333333
vt 0.666667 0.333333
vt 0.333333 0.333333
vt 0.666667 0.000000
vt 0.666667 0.333333
vt 0.000000 0.000000
vt 0.333333 0.333333
vt 0.000000 0.333333
vt 1.000000 0.333333
vt 0.666667 0.000000
vt 1.000000 0.000000
vt 0.333333 0.333333
vt 0.000000 0.666667
vt 0.000000 0.333333
vt 0.333333 1.000000
vt 0.333333 0.666667
vt 0.333333 0.000000
vt 0.333333 0.000000
vt 0.666667 0.333333
vt 0.333333 0.666667
vn 0.4330 0.5000 -0.7500
vn -0.4330 -0.5000 0.7500
vn 0.8660 0.0000 0.5000
vn 0.2500 -0.8660 -0.4330
vn -0.8660 0.0000 -0.5000
vn -0.2500 0.8660 0.4330
g Cube_Cube_Material
usemtl Material
s off
f 2/1/1 4/2/1 1/3/1
f 8/4/2 6/5/2 5/6/2
f 5/7/3 2/8/3 1/9/3
f 6/10/4 3/11/4 2/12/4
f 3/13/5 8/14/5 4/15/5
f 1/16/6 8/17/6 5/18/6
f 2/1/1 3/19/1 4/2/1
f 8/4/2 7/20/2 6/5/2
f 5/7/3 6/21/3 2/8/3
f 6/10/4 7/22/4 3/11/4
f 3/13/5 7/23/5 8/14/5
f 1/16/6 4/24/6 8/17/6
